<svg width="20" height="22" viewBox="0 0 20 22" fill="none" xmlns="http://www.w3.org/2000/svg">
<path d="M19.1479 7.50391C19.0429 7.56519 16.5422 8.85841 16.5422 11.7258C16.6601 14.9959 19.6979 16.1427 19.75 16.1427C19.6979 16.2039 19.2914 17.7049 18.0872 19.2783C17.1315 20.6336 16.0708 22 14.4601 22C12.9279 22 12.3779 21.0967 10.6101 21.0967C8.71154 21.0967 8.17435 22 6.72077 22C5.11006 22 3.97077 20.5603 2.963 19.2178C1.65376 17.4606 0.540945 14.703 0.501659 12.0553C0.475183 10.6522 0.763849 9.27304 1.49661 8.10158C2.53086 6.46614 4.37729 5.35595 6.39368 5.31935C7.93863 5.2708 9.31364 6.30777 10.2565 6.30777C11.1601 6.30777 12.8494 5.31935 14.7607 5.31935C15.5857 5.32014 17.7857 5.55173 19.1479 7.50391ZM10.1258 5.03921C9.85083 3.75792 10.6101 2.47663 11.3172 1.65931C12.2208 0.670887 13.6479 0 14.8786 0C14.9571 1.28129 14.4592 2.53791 13.5693 3.45312C12.7708 4.44154 11.3958 5.18565 10.1258 5.03921Z" fill="#030303"/>
</svg>
