<svg width="15" height="12" viewBox="0 0 15 12" fill="none" xmlns="http://www.w3.org/2000/svg">
<path fill-rule="evenodd" clip-rule="evenodd" d="M14.6082 5.5583C14.7253 5.67549 14.791 5.83434 14.791 5.99996C14.791 6.16559 14.7253 6.32444 14.6082 6.44163L9.60823 11.4416C9.55101 11.503 9.48201 11.5523 9.40535 11.5864C9.32868 11.6206 9.24592 11.639 9.162 11.6405C9.07808 11.6419 8.99472 11.6265 8.9169 11.5951C8.83908 11.5636 8.76838 11.5168 8.70903 11.4575C8.64968 11.3981 8.6029 11.3275 8.57146 11.2496C8.54003 11.1718 8.52459 11.0884 8.52607 11.0045C8.52755 10.9206 8.54592 10.8378 8.58008 10.7612C8.61424 10.6845 8.66349 10.6155 8.7249 10.5583L12.6582 6.62496L0.833233 6.62496C0.667472 6.62496 0.508501 6.55912 0.39129 6.44191C0.27408 6.32469 0.208233 6.16572 0.208233 5.99996C0.208233 5.8342 0.27408 5.67523 0.39129 5.55802C0.508501 5.44081 0.667472 5.37496 0.833233 5.37496L12.6582 5.37496L8.7249 1.44163C8.66349 1.38441 8.61424 1.31541 8.58008 1.23875C8.54592 1.16208 8.52755 1.07932 8.52607 0.9954C8.52459 0.911481 8.54003 0.828123 8.57146 0.7503C8.6029 0.672477 8.64969 0.601782 8.70903 0.542433C8.76838 0.483084 8.83908 0.436297 8.9169 0.404863C8.99472 0.373428 9.07808 0.357991 9.162 0.359472C9.24592 0.360953 9.32868 0.379321 9.40535 0.413481C9.48201 0.447641 9.55101 0.496892 9.60823 0.558298L14.6082 5.5583Z" fill="white"/>
</svg>
