<svg width="20" height="21" viewBox="0 0 20 21" fill="none" xmlns="http://www.w3.org/2000/svg">
<path d="M14.3998 9.83332C14.2415 9.83332 14.0831 9.77496 13.9581 9.64996C13.7164 9.40829 13.7164 9.00829 13.9581 8.76663L16.6164 6.10829L13.9581 3.44996C13.7164 3.20829 13.7164 2.80829 13.9581 2.56663C14.1998 2.32496 14.5998 2.32496 14.8414 2.56663L17.9415 5.66665C18.0581 5.78332 18.1248 5.94163 18.1248 6.10829C18.1248 6.27496 18.0581 6.43332 17.9415 6.54998L14.8414 9.64996C14.7164 9.76663 14.5581 9.83332 14.3998 9.83332Z" fill="#FDFCFD"/>
<path d="M17.5 6.73331H2.5C2.15833 6.73331 1.875 6.44997 1.875 6.10831C1.875 5.76664 2.15833 5.48331 2.5 5.48331H17.5C17.8417 5.48331 18.125 5.76664 18.125 6.10831C18.125 6.44997 17.8417 6.73331 17.5 6.73331Z" fill="#FDFCFD"/>
<path d="M5.59998 18.625C5.44164 18.625 5.28334 18.5667 5.15834 18.4417L2.05831 15.3417C1.94164 15.225 1.875 15.0667 1.875 14.9C1.875 14.7333 1.94164 14.575 2.05831 14.4583L5.15834 11.3583C5.4 11.1167 5.8 11.1167 6.04167 11.3583C6.28333 11.6 6.28333 12 6.04167 12.2417L3.38333 14.9L6.04167 17.5583C6.28333 17.8 6.28333 18.2 6.04167 18.4417C5.925 18.5667 5.76664 18.625 5.59998 18.625Z" fill="#FDFCFD"/>
<path d="M17.5 15.5167H2.5C2.15833 15.5167 1.875 15.2334 1.875 14.8917C1.875 14.55 2.15833 14.2667 2.5 14.2667H17.5C17.8417 14.2667 18.125 14.55 18.125 14.8917C18.125 15.2334 17.8417 15.5167 17.5 15.5167Z" fill="#FDFCFD"/>
</svg>
