<svg width="80" height="80" viewBox="0 0 80 80" fill="none" xmlns="http://www.w3.org/2000/svg">
<path fill-rule="evenodd" clip-rule="evenodd" d="M64.9213 34.1622C63.5232 32.9791 61.4749 32.9791 60.0768 34.1622L50.6516 42.1373C47.9848 44.3938 49.5805 48.75 53.0739 48.75H54.999V52.5C54.999 55.9518 52.2008 58.75 48.749 58.75H30.3115C27.3775 58.75 24.999 56.3715 24.999 53.4375C24.999 51.539 23.46 50 21.5615 50H13.749C11.678 50 9.99905 51.6789 9.99905 53.75V55C9.99905 65.3553 18.3937 73.75 28.749 73.75H51.249C61.6044 73.75 69.999 65.3553 69.999 55V48.75H71.9242C75.4175 48.75 77.0133 44.3938 74.3465 42.1373L64.9213 34.1622Z" fill="#1A2B56"/>
<path fill-rule="evenodd" clip-rule="evenodd" d="M28.749 5C18.3937 5 9.99904 13.3947 9.99904 23.75V30H8.0739C4.58054 30 2.98483 34.3562 5.65162 36.6127L15.0768 44.5878C16.4749 45.7709 18.5232 45.7709 19.9213 44.5878L29.3465 36.6127C32.0132 34.3562 30.4175 30 26.9242 30H24.999V26.25C24.999 22.7982 27.7973 20 31.249 20H49.6865C52.6206 20 54.999 22.3785 54.999 25.3125C54.999 27.211 56.5381 28.75 58.4365 28.75H66.249C68.3201 28.75 69.999 27.0711 69.999 25V23.75C69.999 13.3947 61.6044 5 51.249 5H28.749Z" fill="#1A2B56"/>
<path d="M34.4335 39.5478C34.8708 38.4841 36.3773 38.4841 36.8146 39.5478L37.6698 41.6281C37.8005 41.9461 38.053 42.1985 38.3709 42.3293L40.4513 43.1845C41.515 43.6217 41.515 45.1283 40.4513 45.5655L38.3709 46.4207C38.053 46.5514 37.8005 46.8039 37.6698 47.1219L36.8146 49.2022C36.3773 50.2659 34.8708 50.2659 34.4335 49.2022L33.5783 47.1219C33.4476 46.8039 33.1951 46.5514 32.8772 46.4207L30.7968 45.5655C29.7331 45.1283 29.7331 43.6217 30.7968 43.1845L32.8772 42.3293C33.1951 42.1985 33.4476 41.9461 33.5783 41.6281L34.4335 39.5478Z" fill="#1A2B56"/>
<path d="M44.4045 29.5673C44.8524 28.4776 46.3957 28.4776 46.8436 29.5673L46.9514 29.8294C47.0853 30.1551 47.3439 30.4137 47.6696 30.5476L47.9318 30.6554C49.0215 31.1034 49.0215 32.6466 47.9318 33.0946L47.6696 33.2024C47.3439 33.3362 47.0853 33.5949 46.9514 33.9206L46.8436 34.1827C46.3957 35.2724 44.8524 35.2724 44.4045 34.1827L44.2967 33.9206C44.1628 33.5949 43.9042 33.3362 43.5785 33.2024L43.3163 33.0946C42.2266 32.6466 42.2266 31.1034 43.3163 30.6554L43.5785 30.5476C43.9042 30.4137 44.1628 30.1551 44.2967 29.8294L44.4045 29.5673Z" fill="#1A2B56"/>
<path d="M63.3071 36.0709C62.8411 35.6766 62.1583 35.6766 61.6923 36.0709L52.2672 44.046C51.3782 44.7982 51.9101 46.2503 53.0746 46.2503H56.2497C56.9401 46.2503 57.4997 46.8099 57.4997 47.5003V52.5003C57.4997 57.3328 53.5822 61.2503 48.7497 61.2503H13.7497L13.7451 61.2502C16.194 67.1226 21.9898 71.2503 28.7497 71.2503H51.2497C60.2243 71.2503 67.4997 63.9749 67.4997 55.0003V47.5003C67.4997 46.8099 68.0594 46.2503 68.7497 46.2503H71.9249C73.0893 46.2503 73.6212 44.7982 72.7323 44.046L63.3071 36.0709Z" fill="url(#paint0_linear_279_6306)"/>
<path d="M28.7489 7.5C19.7743 7.5 12.4989 14.7754 12.4989 23.75V31.25C12.4989 31.9404 11.9393 32.5 11.2489 32.5H8.07379C6.90933 32.5 6.37743 33.9521 7.26636 34.7042L16.6915 42.6794C17.1576 43.0737 17.8403 43.0737 18.3064 42.6794L27.7315 34.7042C28.6204 33.9521 28.0885 32.5 26.9241 32.5H23.7489C23.0586 32.5 22.4989 31.9404 22.4989 31.25V26.25C22.4989 21.4175 26.4164 17.5 31.2489 17.5H66.2489L66.2535 17.5C63.8046 11.6276 58.0088 7.5 51.2489 7.5H28.7489Z" fill="#1A2B56"/>
<defs>
<linearGradient id="paint0_linear_279_6306" x1="43.4612" y1="28.1639" x2="43.4612" y2="73.1034" gradientUnits="userSpaceOnUse">
<stop stop-color="#76CF56"/>
<stop offset="1" stop-color="#55DDAF"/>
</linearGradient>
</defs>
</svg>
