<svg width="360" height="800" viewBox="0 0 360 800" fill="none" xmlns="http://www.w3.org/2000/svg">
<g clip-path="url(#clip0_171_3752)">
<path opacity="0.7" fill-rule="evenodd" clip-rule="evenodd" d="M-277 0H637V800H-277V0ZM-275.572 1.42857H-164.178V112.857H-275.572V1.42857ZM-161.322 1.42857H-49.9281V112.857H-161.322V1.42857ZM64.3219 1.42857H-47.0719V112.857H64.3219V1.42857ZM67.1781 1.42857H178.572V112.857H67.1781V1.42857ZM292.822 1.42857H181.428V112.857H292.822V1.42857ZM295.678 1.42857H407.072V112.857H295.678V1.42857ZM521.322 1.42857H409.928V112.857H521.322V1.42857ZM524.178 1.42857H635.572V112.857H524.178V1.42857ZM-164.178 115.714H-275.572V227.143H-164.178V115.714ZM-161.322 115.714H-49.9281V227.143H-161.322V115.714ZM64.3219 115.714H-47.0719V227.143H64.3219V115.714ZM67.1781 115.714H178.572V227.143H67.1781V115.714ZM292.822 115.714H181.428V227.143H292.822V115.714ZM295.678 115.714H407.072V227.143H295.678V115.714ZM521.322 115.714H409.928V227.143H521.322V115.714ZM524.178 115.714H635.572V227.143H524.178V115.714ZM-164.178 230H-275.572V341.429H-164.178V230ZM-161.322 230H-49.9281V341.429H-161.322V230ZM64.3219 230H-47.0719V341.429H64.3219V230ZM67.1781 230H178.572V341.429H67.1781V230ZM292.822 230H181.428V341.429H292.822V230ZM295.678 230H407.072V341.429H295.678V230ZM521.322 230H409.928V341.429H521.322V230ZM524.178 230H635.572V341.429H524.178V230ZM-164.178 344.286H-275.572V455.714H-164.178V344.286ZM-161.322 344.286H-49.9281V455.714H-161.322V344.286ZM64.3219 344.286H-47.0719V455.714H64.3219V344.286ZM67.1781 344.286H178.572V455.714H67.1781V344.286ZM292.822 344.286H181.428V455.714H292.822V344.286ZM295.678 344.286H407.072V455.714H295.678V344.286ZM521.322 344.286H409.928V455.714H521.322V344.286ZM524.178 344.286H635.572V455.714H524.178V344.286ZM-164.178 458.571H-275.572V570H-164.178V458.571ZM-161.322 458.571H-49.9281V570H-161.322V458.571ZM64.3219 458.571H-47.0719V570H64.3219V458.571ZM67.1781 458.571H178.572V570H67.1781V458.571ZM292.822 458.571H181.428V570H292.822V458.571ZM295.678 458.571H407.072V570H295.678V458.571ZM521.322 458.571H409.928V570H521.322V458.571ZM524.178 458.571H635.572V570H524.178V458.571ZM-164.178 572.857H-275.572V684.286H-164.178V572.857ZM-161.322 572.857H-49.9281V684.286H-161.322V572.857ZM64.3219 572.857H-47.0719V684.286H64.3219V572.857ZM67.1781 572.857H178.572V684.286H67.1781V572.857ZM292.822 572.857H181.428V684.286H292.822V572.857ZM295.678 572.857H407.072V684.286H295.678V572.857ZM521.322 572.857H409.928V684.286H521.322V572.857ZM524.178 572.857H635.572V684.286H524.178V572.857ZM-164.178 687.143H-275.572V798.571H-164.178V687.143ZM-161.322 687.143H-49.9281V798.571H-161.322V687.143ZM64.3219 687.143H-47.0719V798.571H64.3219V687.143ZM67.1781 687.143H178.572V798.571H67.1781V687.143ZM292.822 687.143H181.428V798.571H292.822V687.143ZM295.678 687.143H407.072V798.571H295.678V687.143ZM521.322 687.143H409.928V798.571H521.322V687.143ZM524.178 687.143H635.572V798.571H524.178V687.143Z" fill="#F7F9FC"/>
</g>
<defs>
<clipPath id="clip0_171_3752">
<rect width="360" height="800" fill="white"/>
</clipPath>
</defs>
</svg>
