<svg width="80" height="66" viewBox="0 0 80 66" fill="none" xmlns="http://www.w3.org/2000/svg">
<path d="M68.4663 27.4571V38.7953C68.4896 39.1526 68.3907 39.5081 68.1809 39.8213C67.9711 40.1344 67.6588 40.3926 67.2796 40.5663L43.513 51.6323C42.467 52.119 41.2868 52.3755 40.0859 52.3769C38.8851 52.3784 37.704 52.1248 36.6563 51.6406L12.733 40.5691C12.3464 40.3919 12.0295 40.1271 11.8197 39.8059C11.61 39.4847 11.5163 39.1206 11.5496 38.7568V27.4956C11.5166 27.1373 11.607 26.7785 11.8105 26.4608C12.014 26.1431 12.3222 25.8793 12.6996 25.6998L36.553 14.2268C37.6243 13.7117 38.8426 13.4409 40.0826 13.4424C41.3227 13.4438 42.54 13.7174 43.6096 14.2351L67.3163 25.7026C67.6851 25.8792 67.9874 26.1366 68.1898 26.4463C68.3922 26.756 68.4867 27.1058 68.463 27.4571H68.4663Z" stroke="#030303" stroke-width="3.33333"/>
<path d="M12.7314 29.0348C12.3737 28.8689 12.0755 28.6281 11.8668 28.3366C11.6581 28.0452 11.5464 27.7134 11.543 27.3749C11.5397 27.0364 11.6447 26.7031 11.8475 26.4089C12.0503 26.1146 12.3438 25.8697 12.6981 25.699L36.5548 14.226C37.6258 13.7114 38.8434 13.4409 40.0828 13.4424C41.3222 13.4438 42.5389 13.7171 43.6081 14.2343L67.3148 25.7018C67.6683 25.8727 67.961 26.1174 68.1633 26.4114C68.3656 26.7054 68.4703 27.0382 68.4669 27.3762C68.4636 27.7143 68.3522 28.0456 68.1441 28.3368C67.9359 28.628 67.6384 28.8687 67.2814 29.0348L43.5081 40.098C42.4629 40.585 41.2832 40.8416 40.0828 40.843C38.8824 40.8445 37.7017 40.5907 36.6548 40.1063L12.7314 29.0348Z" stroke="#030303" stroke-width="3.33333"/>
</svg>
