<svg width="80" height="66" viewBox="0 0 80 66" fill="none" xmlns="http://www.w3.org/2000/svg">
<path d="M64.4904 23.5162H34.4189C31.9277 23.5162 29.9082 25.5358 29.9082 28.027V46.0698C29.9082 48.561 31.9277 50.5806 34.4189 50.5806H64.4904C66.9816 50.5806 69.0011 48.561 69.0011 46.0698V28.027C69.0011 25.5358 66.9816 23.5162 64.4904 23.5162Z" stroke="#1A2B56" stroke-width="2.88686" stroke-linejoin="round"/>
<path d="M64.0544 23.5162V20.697C64.0541 20.0056 63.9013 19.3227 63.6068 18.6971C63.3123 18.0715 62.8833 17.5187 62.3505 17.078C61.8177 16.6372 61.1942 16.3196 60.5245 16.1476C59.8548 15.9756 59.1553 15.9535 58.4761 16.0829L33.7273 20.307C32.6525 20.5119 31.6829 21.0853 30.9857 21.9285C30.2886 22.7717 29.9075 23.8317 29.9082 24.9258V29.5305" stroke="#1A2B56" stroke-width="2.88686" stroke-linejoin="round"/>
<path d="M59.9779 40.0556C59.3831 40.0556 58.8017 39.8792 58.3072 39.5488C57.8126 39.2183 57.4272 38.7487 57.1996 38.1992C56.972 37.6497 56.9125 37.0451 57.0285 36.4617C57.1445 35.8784 57.4309 35.3426 57.8515 34.922C58.272 34.5015 58.8079 34.2151 59.3912 34.099C59.9745 33.983 60.5792 34.0426 61.1286 34.2702C61.6781 34.4978 62.1478 34.8832 62.4782 35.3777C62.8086 35.8722 62.985 36.4537 62.985 37.0484C62.985 37.846 62.6682 38.6108 62.1042 39.1748C61.5403 39.7387 60.7754 40.0556 59.9779 40.0556Z" fill="#1A2B56"/>
<rect x="10" y="33.0791" width="19.2457" height="1.92457" rx="0.962287" fill="#1A2B56"/>
<rect x="17.6973" y="27.3053" width="11.5474" height="1.92457" rx="0.962287" fill="#1A2B56"/>
<rect x="13.8477" y="38.8528" width="15.3966" height="1.92457" rx="0.962287" fill="#1A2B56"/>
<rect x="19.623" y="44.6265" width="9.62287" height="1.92457" rx="0.962287" fill="#1A2B56"/>
</svg>
