<svg width="20" height="21" viewBox="0 0 20 21" fill="none" xmlns="http://www.w3.org/2000/svg">
<path d="M10.8585 12.812L12.4442 11.1466C12.486 11.1006 12.5369 11.0638 12.5938 11.0386C12.6506 11.0135 12.7121 11.0005 12.7742 11.0005C12.8364 11.0005 12.8978 11.0135 12.9547 11.0386C13.0115 11.0638 13.0624 11.1006 13.1042 11.1466C13.2876 11.342 13.2876 11.6609 13.1042 11.8571L11.4328 13.6143C11.308 13.7533 11.1554 13.8645 10.9848 13.9406C10.8142 14.0167 10.6296 14.056 10.4428 14.056C10.256 14.056 10.0713 14.0167 9.90074 13.9406C9.73017 13.8645 9.57754 13.7533 9.45278 13.6143L7.78135 11.8571C7.69311 11.7599 7.64424 11.6332 7.64424 11.5019C7.64424 11.3705 7.69311 11.2439 7.78135 11.1466C7.82313 11.1006 7.87407 11.0638 7.9309 11.0386C7.98773 11.0135 8.0492 11.0005 8.11135 11.0005C8.1735 11.0005 8.23497 11.0135 8.2918 11.0386C8.34863 11.0638 8.39957 11.1006 8.44135 11.1466L10.0014 12.7846V5.47657C10.0014 5.21343 10.1934 5 10.4299 5C10.6665 5 10.8585 5.21343 10.8585 5.47657V12.812ZM6.72706 9.28571C6.52986 9.28628 6.33897 9.35531 6.18701 9.481C6.03505 9.60669 5.93146 9.78126 5.89392 9.97486L4.87478 15.1177C4.84924 15.2415 4.85155 15.3695 4.88154 15.4923C4.91154 15.6152 4.96846 15.7298 5.04821 15.8279C5.12795 15.926 5.22851 16.0052 5.34261 16.0596C5.4567 16.1141 5.58149 16.1425 5.70792 16.1429H15.1519C15.2781 16.1418 15.4025 16.1128 15.5162 16.0581C15.6299 16.0034 15.7301 15.9243 15.8097 15.8263C15.8893 15.7284 15.9463 15.6141 15.9766 15.4916C16.0069 15.3691 16.0098 15.2415 15.9851 15.1177L14.9651 9.97486C14.9276 9.78154 14.8242 9.6072 14.6726 9.48154C14.521 9.35588 14.3305 9.28668 14.1336 9.28571H6.72706ZM8.28707 8.42857V9.28571H12.5728V8.42857H14.1371C14.9479 8.42857 15.6456 9.00543 15.8051 9.80686L16.8251 14.9497C16.8746 15.1973 16.8688 15.4527 16.8081 15.6977C16.7474 15.9428 16.6334 16.1714 16.4741 16.3673C16.3148 16.5632 16.1143 16.7214 15.8868 16.8308C15.6592 16.9402 15.4104 16.998 15.1579 17H5.70192C5.44908 16.9992 5.19958 16.9422 4.97143 16.8332C4.74328 16.7242 4.54219 16.5659 4.38268 16.3698C4.22316 16.1736 4.10921 15.9444 4.04904 15.6989C3.98888 15.4533 3.98401 15.1974 4.03478 14.9497L5.05478 9.80686C5.21335 9.00543 5.91192 8.42857 6.72192 8.42857H8.28707Z" fill="#030303"/>
</svg>
