<svg width="12" height="13" viewBox="0 0 12 13" fill="none" xmlns="http://www.w3.org/2000/svg">
<path fill-rule="evenodd" clip-rule="evenodd" d="M1.5 1.99636C1.5 1.72223 1.72358 1.5 1.99938 1.5H6.49378C6.76958 1.5 6.99316 1.72223 6.99316 1.99636V7.95265C6.99316 8.22678 6.76958 8.44901 6.49378 8.44901H1.99938C1.72358 8.44901 1.5 8.22678 1.5 7.95265V1.99636ZM2.49876 2.49272V7.45629H5.9944V2.49272H2.49876Z" fill="#030303"/>
<path fill-rule="evenodd" clip-rule="evenodd" d="M8.00914 4.10036C8.08121 3.83575 8.35545 3.67932 8.62166 3.75095L10.631 4.29163C10.8967 4.36313 11.0541 4.6349 10.9829 4.8992L9.30263 11.132C9.23125 11.3968 8.95742 11.5539 8.69102 11.483L4.86628 10.4643C4.59987 10.3934 4.44178 10.1212 4.51316 9.85641C4.58454 9.59162 4.85837 9.43449 5.12477 9.50544L8.46715 10.3956L9.88922 5.12048L8.36067 4.70918C8.09446 4.63754 7.93707 4.36497 8.00914 4.10036Z" fill="#030303"/>
</svg>
