<?xml version="1.0" encoding="UTF-8"?>
<svg xmlns="http://www.w3.org/2000/svg" id="Layer_1" data-name="Layer 1" viewBox="0 0 24 24">
  <path d="m19.5,1H4.5C2.019,1,0,3.019,0,5.5v13c0,2.481,2.019,4.5,4.5,4.5h7c.276,0,.5-.224.5-.5s-.224-.5-.5-.5h-7c-1.93,0-3.5-1.57-3.5-3.5v-9.5h22v4.5c0,.276.224.5.5.5s.5-.224.5-.5V5.5c0-2.481-2.019-4.5-4.5-4.5ZM1,8v-2.5c0-1.93,1.57-3.5,3.5-3.5h15c1.93,0,3.5,1.57,3.5,3.5v2.5H1Zm4-3c0,.552-.448,1-1,1s-1-.448-1-1,.448-1,1-1,1,.448,1,1Zm3,0c0,.552-.448,1-1,1s-1-.448-1-1,.448-1,1-1,1,.448,1,1Zm3,0c0,.552-.448,1-1,1s-1-.448-1-1,.448-1,1-1,1,.448,1,1Zm9.87,15.163c.706-.862,1.13-1.964,1.13-3.163,0-2.757-2.243-5-5-5s-5,2.243-5,5,2.243,5,5,5c1.199,0,2.3-.424,3.163-1.13l2.984,2.984c.098.098.226.146.354.146s.256-.049.354-.146c.195-.195.195-.512,0-.707l-2.984-2.984Zm-3.87.837c-2.206,0-4-1.794-4-4s1.794-4,4-4,4,1.794,4,4-1.794,4-4,4Z"/>
</svg>
