<?xml version="1.0" standalone="no"?>
<!DOCTYPE svg PUBLIC "-//W3C//DTD SVG 20010904//EN"
 "http://www.w3.org/TR/2001/REC-SVG-20010904/DTD/svg10.dtd">
<svg version="1.0" xmlns="http://www.w3.org/2000/svg"
 width="768.000000pt" height="1024.000000pt" viewBox="0 0 768.000000 1024.000000"
 preserveAspectRatio="xMidYMid meet">

<g transform="translate(0.000000,1024.000000) scale(0.100000,-0.100000)"
fill="#000000" stroke="none">
<path d="M0 5120 l0 -5120 3840 0 3840 0 0 5120 0 5120 -3840 0 -3840 0 0
-5120z m3955 1965 c124 -172 195 -293 219 -372 10 -30 19 -29 101 12 39 19 76
35 83 35 28 0 1 -101 -37 -140 -8 -8 -35 -46 -60 -85 -80 -124 -172 -237 -288
-353 l-112 -114 -6 -86 c-3 -48 -10 -145 -15 -217 -6 -71 -11 -260 -11 -420
-1 -203 -4 -276 -11 -245 -5 25 -8 215 -6 423 2 208 0 368 -4 355 -5 -21 -6
-21 -8 -3 -1 11 -2 26 -1 34 2 7 -3 10 -9 6 -6 -3 -9 -2 -8 4 2 5 -6 16 -17
25 -21 15 -2 18 23 3 8 -6 12 0 12 18 0 14 4 24 9 20 6 -3 13 16 17 41 6 39 4
50 -11 60 -10 8 -30 24 -44 37 -44 39 -50 40 -44 10 2 -16 5 -44 6 -65 1 -20
5 -34 10 -31 4 2 7 -2 7 -10 0 -18 -24 -39 -33 -30 -4 3 -7 1 -7 -5 0 -7 -4
-12 -10 -12 -5 0 -9 3 -8 8 1 4 -4 16 -11 28 -10 14 -21 19 -41 16 -16 -2 -39
4 -54 13 -15 10 -29 16 -31 13 -3 -3 11 -44 30 -92 19 -48 34 -90 33 -94 -1
-4 4 -20 11 -36 6 -16 10 -31 7 -33 -2 -2 -25 9 -52 25 -60 35 -84 44 -84 32
0 -8 -33 -23 -52 -25 -4 0 -14 -9 -23 -20 -16 -20 -17 -20 -10 0 3 11 3 16 -1
12 -4 -4 -14 -1 -23 6 -17 13 25 -63 73 -133 26 -38 117 -184 134 -215 8 -16
-11 6 -47 52 l-32 42 -30 -30 c-30 -31 -38 -46 -17 -33 7 4 8 3 4 -5 -4 -6
-12 -9 -17 -6 -5 4 -9 0 -9 -7 0 -10 -2 -10 -9 1 -5 7 -11 9 -14 5 -3 -5 28
-38 69 -73 72 -63 91 -91 38 -57 -14 10 -27 16 -28 14 -1 -2 -15 -19 -29 -39
-36 -48 -35 -78 5 -111 52 -42 29 -40 -37 3 -33 22 -81 53 -106 68 l-46 29 3
-25 c1 -14 9 -30 16 -35 10 -8 9 -9 -3 -5 -9 3 -22 0 -28 -6 -9 -9 -13 -6 -18
12 -4 15 -8 19 -13 11 -13 -21 -189 122 -225 184 -33 57 -105 232 -105 256 0
26 8 25 111 -5 110 -32 113 -32 95 3 -26 51 -65 169 -81 246 -17 85 -29 373
-15 381 5 3 61 -13 126 -35 64 -22 117 -40 118 -40 1 0 3 55 3 123 1 153 33
367 56 367 5 0 32 -12 61 -26 99 -50 92 -51 127 19 40 79 122 204 189 287 29
36 69 90 88 120 45 70 54 75 71 42 8 -15 47 -72 86 -127z m508 61 c6 -16 -2
-28 -14 -20 -12 7 -11 34 0 34 5 0 11 -6 14 -14z m620 -90 c7 -17 -11 -56 -28
-63 -26 -9 -65 14 -65 39 0 28 10 43 30 50 18 6 57 -10 63 -26z m-2382 -2 c37
-33 -28 -96 -66 -64 -18 15 -11 49 13 68 21 16 32 15 53 -4z m457 -52 c2 -13
-3 -25 -13 -28 -23 -9 -38 10 -30 36 9 27 39 22 43 -8z m1107 -26 c0 -22 -14
-29 -34 -17 -19 12 -6 43 16 39 10 -2 18 -12 18 -22z m-1187 -288 c-7 -19 -38
-22 -38 -4 0 10 9 16 21 16 12 0 19 -5 17 -12z m1622 -12 c0 -3 -4 -8 -10 -11
-5 -3 -10 -1 -10 4 0 6 5 11 10 11 6 0 10 -2 10 -4z m-1926 -112 c19 -7 21
-45 4 -62 -32 -32 -78 10 -56 51 9 18 25 21 52 11z m2539 -55 c8 -29 -13 -60
-38 -57 -24 3 -32 42 -15 64 18 21 47 17 53 -7z m-248 1 c3 -5 -1 -10 -9 -10
-9 0 -16 5 -16 10 0 6 4 10 9 10 6 0 13 -4 16 -10z m-2610 -35 c0 -25 -4 -31
-26 -33 -21 -2 -28 2 -33 23 -9 35 0 47 32 43 23 -2 27 -8 27 -33z m2386 -8
c-13 -13 -26 -3 -16 12 3 6 11 8 17 5 6 -4 6 -10 -1 -17z m-201 -1 c0 -11 -19
-15 -25 -6 -3 5 1 10 9 10 9 0 16 -2 16 -4z m1058 -88 c-4 -44 -32 -49 -52 -9
-17 32 -12 39 32 40 20 1 23 -3 20 -31z m-3658 -59 c0 -22 -29 -33 -46 -18
-20 17 -17 33 9 44 24 11 37 2 37 -26z m2613 28 c9 -25 -10 -98 -30 -112 -11
-7 -37 -42 -58 -77 -22 -35 -98 -144 -170 -243 -178 -245 -319 -460 -429 -657
-12 -21 -24 -38 -28 -38 -7 0 -3 75 6 88 3 5 -1 18 -9 28 -14 18 -14 18 -15
-6 -1 -27 -29 -85 -30 -60 0 34 51 366 66 423 9 34 14 74 12 89 -3 15 -1 25 4
22 4 -3 9 0 9 5 1 6 3 16 4 21 1 6 3 17 4 26 0 8 6 12 12 9 6 -4 9 -1 8 6 -5
22 12 60 22 53 12 -7 21 3 90 104 60 87 129 159 184 193 22 14 87 42 145 62
58 21 123 46 145 57 49 23 52 23 58 7z m435 -140 c3 -21 -1 -27 -16 -27 -20 0
-32 24 -24 48 7 23 37 8 40 -21z m-2418 7 c0 -9 -5 -14 -12 -12 -18 6 -21 28
-4 28 9 0 16 -7 16 -16z m238 -102 c3 -16 -2 -22 -17 -22 -24 0 -35 15 -27 36
9 23 40 13 44 -14z m2142 -149 c0 -21 -4 -24 -27 -21 -34 4 -46 44 -16 50 29
7 43 -3 43 -29z m-1290 17 c0 -5 -4 -10 -10 -10 -5 0 -10 5 -10 10 0 6 5 10
10 10 6 0 10 -4 10 -10z m-1662 -57 c2 -8 -5 -13 -17 -13 -12 0 -21 6 -21 16
0 18 31 15 38 -3z m3532 -18 c0 -35 -5 -40 -34 -29 -19 7 -21 35 -4 52 23 23
38 13 38 -23z m-2798 10 c0 -5 -5 -11 -11 -13 -6 -2 -11 4 -11 13 0 9 5 15 11
13 6 -2 11 -8 11 -13z m-272 -9 c0 -8 -4 -17 -9 -21 -12 -7 -24 12 -16 25 9
15 25 12 25 -4z m2207 -173 c-2 -5 -12 -26 -22 -48 -10 -22 -43 -75 -72 -117
-48 -68 -65 -84 -161 -144 -355 -225 -508 -344 -583 -456 -23 -33 -43 -57 -46
-54 -12 11 -2 137 13 173 29 68 100 167 165 230 87 83 102 95 275 216 106 74
180 117 250 147 54 22 108 45 119 50 25 11 68 13 62 3z m-2634 -83 c48 -22
128 -51 179 -65 139 -37 187 -54 256 -91 35 -19 65 -34 67 -34 5 0 52 124 60
157 l7 33 40 -33 c83 -68 143 -124 189 -179 26 -32 51 -53 54 -48 10 16 41 12
56 -7 12 -15 12 -16 -3 -10 -10 3 -25 4 -33 1 -12 -5 -9 -17 15 -65 32 -62 36
-79 20 -79 -5 0 -10 7 -10 15 0 19 -39 20 -46 1 -6 -16 -44 -18 -44 -3 0 5 -7
4 -15 -3 -8 -7 -15 -8 -15 -2 0 5 -10 10 -23 10 -23 0 -23 -3 -16 -49 4 -27
29 -142 55 -256 49 -218 54 -260 28 -280 -33 -24 -287 -28 -485 -7 -35 3 -48
1 -52 -10 -4 -9 -2 -18 3 -21 5 -3 7 -14 5 -24 -2 -13 4 -21 17 -24 15 -4 19
-11 15 -27 -4 -16 2 -29 20 -46 20 -18 22 -24 9 -24 -26 0 -19 -25 12 -41 15
-8 32 -20 38 -28 12 -15 61 -13 199 9 150 25 386 12 523 -27 75 -21 84 -12 26
27 -115 79 -294 226 -294 241 0 11 32 -9 119 -74 35 -26 65 -46 67 -44 3 2 0
16 -6 31 -5 14 -14 66 -20 115 -17 133 4 247 70 379 45 93 62 115 72 95 2 -5
28 -27 59 -49 57 -43 177 -171 198 -212 15 -29 4 -44 -14 -19 -7 10 -22 19
-34 20 -12 1 -21 4 -21 8 0 4 -11 6 -25 4 -14 -1 -25 1 -25 5 0 5 -9 6 -20 3
-13 -3 -20 0 -20 8 0 9 -3 10 -10 3 -8 -8 4 -85 39 -255 27 -134 52 -253 56
-264 l7 -20 -13 20 c-7 11 -28 72 -45 135 -18 63 -33 111 -33 106 -1 -5 -9 1
-20 12 -22 26 -31 28 -31 6 0 -10 -6 -14 -15 -10 -8 3 -15 1 -15 -4 0 -6 -11
-10 -25 -10 -16 0 -25 -6 -25 -16 0 -12 -3 -14 -13 -6 -18 15 -43 -15 -39 -48
9 -74 30 -97 217 -238 68 -52 70 -52 77 -30 3 13 7 16 8 8 1 -8 3 -23 5 -32 3
-19 -20 -25 -30 -8 -16 27 -165 80 -165 59 0 -4 -16 -12 -35 -18 -32 -8 -59
-30 -95 -75 -14 -18 -11 -18 70 -13 l85 6 -80 -16 c-60 -12 -147 -16 -347 -17
-148 -1 -268 -4 -268 -8 0 -4 21 -10 46 -14 28 -4 48 -13 52 -23 9 -24 28 -41
49 -42 10 0 13 -3 5 -6 -6 -2 -10 -9 -7 -13 3 -5 13 -6 22 -3 10 4 14 2 10 -4
-4 -6 7 -25 24 -42 30 -31 30 -31 7 -32 -101 -6 -213 18 -325 71 -75 35 -87
38 -100 25 -16 -17 -43 -20 -43 -6 0 5 7 16 15 25 14 13 8 20 -59 65 -41 28
-78 56 -82 62 -4 8 19 36 62 74 80 73 81 67 -32 151 -77 57 -232 205 -278 267
-32 42 -30 49 29 67 22 7 60 24 84 37 24 12 50 23 57 23 19 0 17 17 -5 48 -77
111 -116 257 -131 501 -5 86 -13 180 -16 209 -4 32 -3 52 3 52 6 0 49 -18 96
-40z m3035 19 c4 -24 -30 -34 -45 -13 -20 27 -16 36 14 32 16 -2 29 -10 31
-19z m492 14 c-2 -28 -31 -124 -46 -153 -23 -42 -34 -51 -55 -45 -11 4 -37
-22 -85 -82 -38 -48 -106 -130 -151 -182 -45 -53 -81 -96 -79 -98 1 -2 56 1
122 6 124 10 189 30 197 60 3 9 5 1 6 -18 0 -19 -2 -32 -5 -29 -3 4 -24 0 -47
-8 -44 -14 -231 -44 -279 -44 -22 0 -45 -17 -107 -80 -44 -44 -73 -80 -66 -80
7 0 21 7 29 16 9 8 20 12 26 9 5 -3 10 -2 10 3 0 5 11 8 25 7 14 -2 53 3 87
10 210 46 252 55 254 52 3 -3 -72 -27 -233 -74 -34 -9 -60 -19 -59 -21 2 -1
34 -4 72 -6 88 -4 154 -23 147 -43 -4 -11 -8 -12 -13 -3 -6 9 -13 9 -29 1 -12
-7 -25 -9 -30 -7 -5 3 -11 -1 -15 -9 -3 -8 -14 -15 -25 -15 -11 0 -24 -7 -29
-16 -5 -9 -12 -15 -15 -15 -4 1 -7 -1 -7 -4 0 -3 -9 -15 -20 -27 -11 -12 -20
-26 -20 -30 0 -5 -4 -7 -10 -3 -9 6 -40 -44 -40 -65 0 -14 109 -7 239 14 52 9
96 14 99 12 6 -6 -131 -35 -248 -51 -147 -21 -489 -32 -518 -16 -19 10 -27 9
-46 -6 -12 -10 -83 -64 -157 -120 -159 -120 -203 -158 -174 -150 11 4 79 19
150 34 113 24 152 27 300 27 123 0 188 -5 235 -17 36 -9 80 -19 99 -23 41 -8
24 -22 -32 -26 -20 -1 -33 -6 -31 -10 6 -10 -36 -47 -53 -48 -7 0 -17 -10 -24
-21 -9 -17 -13 -19 -19 -8 -6 9 -10 6 -15 -13 -4 -15 -14 -29 -23 -31 -51 -14
183 -1 358 19 30 4 52 3 48 -1 -13 -14 -347 -45 -556 -51 -168 -5 -246 -3
-347 9 -71 9 -166 19 -211 23 l-81 6 -69 -48 c-39 -27 -103 -73 -144 -101 -40
-29 -77 -53 -81 -53 -13 0 44 79 57 80 6 0 59 36 117 80 73 55 113 92 125 118
23 44 58 179 50 187 -7 8 -50 -15 -61 -32 -4 -7 -17 -13 -27 -13 -11 0 -20 -7
-20 -15 0 -14 -17 -20 -47 -16 -7 1 -13 -4 -13 -11 0 -9 -3 -9 -10 2 -6 9 -10
10 -10 3 0 -7 -10 -21 -21 -32 -12 -11 -30 -44 -40 -73 -17 -51 -18 -52 -13
-13 26 221 57 354 115 482 55 124 148 231 247 287 59 33 62 34 62 14 0 -12 3
-18 7 -15 10 10 43 -23 57 -58 17 -39 12 -165 -7 -201 -20 -38 -67 -82 -67
-63 0 12 -2 11 -10 -1 -8 -13 -10 -13 -10 2 0 9 -4 20 -10 23 -6 4 -7 -1 -3
-12 4 -12 3 -15 -5 -8 -5 6 -12 19 -14 30 -3 13 -8 1 -15 -30 -7 -27 -24 -103
-38 -169 -15 -65 -40 -157 -56 -204 -16 -47 -29 -88 -29 -90 0 -22 516 377
517 400 0 7 3 47 7 88 4 48 3 68 -3 55 -8 -18 -9 -19 -16 -3 -4 10 -11 15 -16
13 -5 -3 -16 3 -26 14 -9 11 -20 18 -25 15 -4 -3 -5 3 -1 12 5 14 2 16 -15 12
-17 -5 -22 -2 -22 15 0 41 -3 56 -12 51 -4 -3 -8 2 -8 11 0 13 -4 14 -20 5
-11 -6 -20 -9 -20 -6 0 14 66 189 87 231 48 94 134 217 196 278 103 103 147
139 160 134 7 -2 18 -22 26 -43 7 -22 22 -63 33 -92 l20 -53 32 25 c53 40 182
95 298 127 60 16 143 47 186 68 78 39 102 47 102 34z m-3130 -67 c0 -19 -17
-29 -37 -22 -12 5 -13 9 -3 21 16 19 40 19 40 1z m-570 -85 c0 -12 -28 -22
-34 -12 -3 5 -3 11 1 15 9 9 33 7 33 -3z m3833 2 c9 -9 -13 -34 -24 -27 -14 8
-11 34 4 34 8 0 17 -3 20 -7z m307 -67 c0 -14 -4 -27 -9 -30 -15 -10 -41 5
-41 23 0 23 9 31 32 31 12 0 18 -7 18 -24z m-2213 -308 c-2 -13 -4 -3 -4 22 0
25 2 35 4 23 2 -13 2 -33 0 -45z m35 30 c-7 -7 -12 -8 -12 -2 0 14 12 26 19
19 2 -3 -1 -11 -7 -17z m2208 -58 c0 -25 -4 -30 -25 -30 -14 0 -28 7 -31 15
-10 25 4 45 31 45 21 0 25 -5 25 -30z m-2253 -47 c-3 -10 -5 -2 -5 17 0 19 2
27 5 18 2 -10 2 -26 0 -35z m-307 -123 c0 -5 -5 -10 -11 -10 -5 0 -7 5 -4 10
3 6 8 10 11 10 2 0 4 -4 4 -10z m2064 -191 c-9 -15 -20 -10 -20 10 0 15 3 17
13 9 7 -6 10 -14 7 -19z m-3674 -84 c0 -8 -7 -15 -15 -15 -16 0 -20 12 -8 23
11 12 23 8 23 -8z m1869 -122 c-2 -132 -16 -113 -18 23 -1 71 3 94 16 94 2 0
2 -53 2 -117z m1928 81 c-3 -3 -12 -4 -19 -1 -8 3 -5 6 6 6 11 1 17 -2 13 -5z
m-1930 -261 c-3 -10 -5 -4 -5 12 0 17 2 24 5 18 2 -7 2 -21 0 -30z m1563 -95
c0 -5 0 -12 0 -18 0 -5 -5 -10 -12 -10 -6 0 -8 3 -5 7 4 3 -1 12 -10 18 -15
11 -14 12 5 11 12 0 22 -4 22 -8z m-1549 -103 c1 -5 -2 -29 -5 -53 -3 -24 -1
-52 4 -63 15 -27 -14 -37 -40 -14 -23 21 -27 44 -5 25 20 -17 29 6 22 62 -3
24 -3 68 1 98 l6 55 8 -50 c4 -27 8 -54 9 -60z m-2036 35 c-5 -8 -11 -8 -17
-2 -6 6 -7 16 -3 22 5 8 11 8 17 2 6 -6 7 -16 3 -22z m1582 24 c-3 -3 -12 -4
-19 -1 -8 3 -5 6 6 6 11 1 17 -2 13 -5z m560 -26 c-3 -8 -6 -5 -6 6 -1 11 2
17 5 13 3 -3 4 -12 1 -19z m-1767 -8 c0 -5 -4 -10 -9 -10 -6 0 -13 5 -16 10
-3 6 1 10 9 10 9 0 16 -4 16 -10z m2107 4 c-3 -3 -12 -4 -19 -1 -8 3 -5 6 6 6
11 1 17 -2 13 -5z m-2057 -154 c0 -22 -12 -32 -26 -22 -17 11 -24 40 -11 45
20 7 37 -4 37 -23z m-262 -51 c17 -27 6 -58 -24 -65 -49 -13 -75 50 -33 80 25
17 40 13 57 -15z m2371 25 c39 -8 30 -24 -14 -24 -19 0 -37 -5 -41 -12 -5 -7
-3 -8 5 -3 9 5 9 1 -1 -14 -7 -12 -19 -19 -27 -16 -11 5 -12 3 -1 -10 11 -13
11 -16 -1 -13 -8 2 -14 -4 -14 -12 0 -8 -8 -23 -19 -32 -21 -20 -33 -13 111
-64 l82 -29 88 22 c48 13 111 25 138 27 56 6 52 5 -98 -31 -60 -14 -106 -28
-103 -31 9 -8 93 -38 281 -98 94 -31 176 -57 184 -60 8 -2 12 -6 10 -9 -3 -2
-56 12 -119 31 -63 20 -142 44 -175 54 -33 10 -91 30 -130 44 -38 15 -110 41
-160 58 -49 17 -115 41 -145 53 -30 13 -66 26 -80 29 -25 7 -25 7 -5 -11 27
-25 100 -121 162 -213 28 -41 74 -106 102 -144 28 -38 51 -75 51 -82 0 -19
-22 -18 -46 2 -10 8 -13 12 -5 8 9 -5 12 -3 7 4 -4 7 -14 12 -22 12 -8 0 -13
6 -12 13 2 6 -6 13 -17 13 -11 1 -25 2 -30 3 -12 1 -37 19 -88 64 -26 22 -29
29 -17 36 9 6 19 6 26 0 18 -15 74 -29 74 -19 0 5 -8 14 -17 19 -12 7 -13 10
-5 11 14 0 11 4 -63 96 -16 20 -35 45 -40 55 -6 11 -21 27 -35 36 -17 12 -21
13 -15 2 8 -14 -53 37 -67 56 -4 5 -10 6 -14 2 -4 -4 -18 9 -32 29 -13 19 -26
34 -28 31 -2 -2 -23 13 -46 35 -23 21 -39 40 -37 43 3 2 25 13 49 24 39 18 66
21 206 21 89 0 175 -3 193 -6z m1479 -56 c3 -22 -2 -29 -22 -34 -30 -7 -46 1
-46 25 0 46 63 55 68 9z m-2088 -12 c0 -3 -17 -10 -37 -17 -45 -15 -44 -14
-115 -114 -31 -44 -84 -114 -117 -156 l-60 -77 24 -36 24 -35 -26 -21 c-14
-11 -29 -20 -33 -20 -5 0 -32 -16 -61 -35 -31 -21 -56 -32 -61 -27 -5 5 -6 31
-3 58 6 39 16 59 47 92 21 23 43 40 48 37 6 -4 7 2 3 11 -5 14 -3 16 11 11 13
-5 17 -3 13 7 -3 8 1 13 11 12 9 0 16 5 14 12 -1 8 2 11 7 8 5 -3 24 13 42 36
68 82 149 192 145 195 -4 4 -189 -65 -414 -154 -116 -46 -139 -59 -122 -65 12
-5 34 -7 49 -6 14 1 43 -4 64 -11 24 -8 42 -9 50 -3 21 16 57 21 57 8 0 -7 7
-13 15 -13 8 0 12 4 10 8 -3 4 6 14 20 23 33 22 31 8 -6 -45 -58 -82 -77 -92
-222 -121 -45 -9 -78 -9 -142 0 -101 15 -233 57 -260 83 -19 19 -19 20 90 130
166 167 207 195 239 164 8 -9 18 -15 21 -14 3 0 20 -5 38 -12 18 -6 39 -13 47
-14 8 -1 27 -7 42 -13 15 -6 54 -14 85 -18 61 -6 120 11 348 99 87 34 115 42
115 33z m-1194 -25 c20 -16 22 -20 9 -31 -29 -24 -75 17 -48 43 9 10 12 9 39
-12z m1293 -211 c3 -186 27 -428 49 -490 11 -31 11 -45 -1 -52 -17 -11 -105
-10 -112 2 -3 5 3 89 14 187 20 182 29 309 32 468 1 77 3 83 9 45 4 -25 8 -97
9 -160z m161 105 c0 -5 -5 -3 -10 5 -5 8 -10 20 -10 25 0 6 5 3 10 -5 5 -8 10
-19 10 -25z m36 -58 c14 -30 14 -31 -1 -12 -25 30 -39 59 -26 51 6 -4 18 -22
27 -39z m-1973 -40 c2 -6 -1 -18 -8 -24 -10 -10 -16 -9 -25 2 -6 8 -9 19 -5
25 9 14 32 13 38 -3z m2012 -7 c3 -5 -1 -10 -9 -10 -9 0 -16 5 -16 10 0 6 4
10 9 10 6 0 13 -4 16 -10z m20 -38 c-3 -3 -11 0 -18 7 -9 10 -8 11 6 5 10 -3
15 -9 12 -12z m1465 -17 c0 -18 -5 -25 -19 -25 -11 0 -23 5 -26 10 -11 18 3
40 25 40 15 0 20 -7 20 -25z m-3050 -46 c0 -22 -13 -25 -29 -6 -8 10 -7 17 1
25 15 15 28 6 28 -19z m1640 -185 c0 -8 -9 -14 -20 -14 -19 0 -27 19 -14 33
10 9 34 -4 34 -19z m-1002 -256 c-6 -18 -28 -21 -28 -4 0 9 7 16 16 16 9 0 14
-5 12 -12z m1466 3 c9 -14 -4 -41 -19 -41 -18 0 -28 17 -21 35 6 17 32 20 40
6z m-1910 -97 c19 -18 19 -20 6 -45 -12 -21 -50 -25 -68 -7 -17 17 -15 45 6
57 24 15 38 13 56 -5z m2375 7 c19 -12 6 -58 -20 -66 -43 -14 -69 48 -26 65
28 11 29 11 46 1z m-689 -111 c0 -5 -4 -10 -9 -10 -6 0 -13 5 -16 10 -3 6 1
10 9 10 9 0 16 -4 16 -10z m-735 -55 c0 -21 -31 -33 -46 -18 -5 5 -7 17 -3 27
9 24 49 17 49 -9z m399 -21 c21 -20 20 -27 -4 -49 -36 -33 -78 9 -45 45 22 24
29 25 49 4z m-164 -154 c0 -27 -28 -46 -48 -33 -26 16 -26 42 0 52 29 11 48 4
48 -19z"/>
<path d="M3925 6459 c3 -4 -2 -9 -10 -13 -8 -3 -15 -11 -15 -17 0 -7 -6 -20
-14 -28 -9 -11 -15 -60 -20 -156 l-7 -140 23 24 c25 28 44 125 22 117 -9 -3
-11 1 -7 11 4 11 2 14 -5 9 -8 -5 -12 3 -11 26 1 23 3 26 6 11 5 -26 11 -28
33 -12 13 10 13 10 0 6 -10 -3 -15 3 -15 19 0 13 3 24 8 24 4 0 7 -5 7 -11 0
-5 5 -7 10 -4 18 11 12 35 -7 28 -17 -7 -17 -6 -1 19 9 14 15 36 12 49 -2 13
-2 18 2 12 8 -18 24 -16 24 2 0 8 -5 15 -11 15 -5 0 -8 4 -5 8 3 5 -1 9 -9 9
-8 0 -12 -4 -10 -8z"/>
<path d="M3946 6394 c-3 -9 -4 -19 -1 -22 3 -3 5 1 5 9 0 11 2 11 10 -1 5 -8
10 -10 10 -5 0 6 -4 16 -9 23 -6 11 -10 10 -15 -4z"/>
<path d="M4640 5590 c0 -5 -6 -7 -14 -4 -9 3 -17 -3 -21 -16 -5 -17 -9 -19
-21 -9 -12 10 -13 9 -8 -5 5 -12 2 -15 -10 -10 -12 4 -16 0 -16 -15 0 -12 -8
-25 -17 -28 -21 -8 -46 -33 -70 -69 l-18 -28 72 38 c78 41 91 52 122 109 24
43 25 47 11 47 -5 0 -10 -4 -10 -10z"/>
<path d="M2916 4774 c-6 -21 -2 -32 15 -48 l21 -21 -5 39 c-8 51 -23 65 -31
30z"/>
<path d="M4847 5235 c-25 -77 -58 -189 -72 -250 -14 -60 -35 -149 -47 -197
-12 -48 -19 -90 -15 -94 7 -8 49 22 146 104 210 177 241 212 251 278 4 23 3
49 -1 56 -4 7 -10 50 -13 95 -4 45 -12 96 -20 114 -13 30 -14 26 -18 -73 -5
-107 -24 -180 -25 -96 -1 77 -2 81 -19 74 -11 -4 -15 0 -13 17 1 12 -1 30 -5
40 -3 9 -8 23 -10 31 -3 10 -17 14 -45 12 -30 -2 -41 1 -43 13 -2 9 -25 -47
-51 -124z"/>
<path d="M4910 4803 c-14 -9 -50 -38 -81 -63 -31 -25 -65 -50 -75 -57 -18 -11
-18 -12 4 -12 13 -1 33 10 46 24 13 14 28 25 33 25 6 0 21 9 34 21 13 11 34
29 47 40 12 10 22 23 22 29 0 13 -1 13 -30 -7z"/>
</g>
</svg>
