<svg width="56" height="56" viewBox="0 0 56 56" fill="none" xmlns="http://www.w3.org/2000/svg">
<path d="M39.6674 19.2499C40.441 19.2499 41.1829 18.9426 41.7298 18.3956C42.2768 17.8486 42.5841 17.1068 42.5841 16.3332C42.5841 15.5597 42.2768 14.8178 41.7298 14.2708C41.1829 13.7238 40.441 13.4165 39.6674 13.4165C38.8939 13.4165 38.152 13.7238 37.6051 14.2708C37.0581 14.8178 36.7508 15.5597 36.7508 16.3332C36.7508 17.1068 37.0581 17.8486 37.6051 18.3956C38.152 18.9426 38.8939 19.2499 39.6674 19.2499ZM20.8841 20.0665C20.8866 16.0139 22.4976 12.128 25.3632 9.26232C28.2289 6.39667 32.1148 4.78568 36.1674 4.7832C44.5581 4.7832 51.4508 11.3609 51.4508 19.8332C51.4555 23.0644 50.4297 26.2129 48.5224 28.8212C47.6119 28.0783 46.6116 27.4528 45.5451 26.9592C47.1068 24.9121 47.9513 22.408 47.9484 19.8332C47.9484 13.3722 42.7054 8.2832 36.1651 8.2832C33.0407 8.28567 30.045 9.52792 27.8358 11.7372C25.6265 13.9465 24.3843 16.9422 24.3818 20.0665C24.3818 20.6779 24.4611 21.3242 24.5871 22.0382C24.7052 22.6928 24.6639 23.3663 24.4665 24.0016C24.2691 24.6368 23.9215 25.2151 23.4531 25.6875L8.90245 40.2359C8.63163 40.5068 8.41682 40.8283 8.27029 41.1823C8.12376 41.5362 8.04838 41.9155 8.04845 42.2985V47.3665C8.04845 47.6885 8.30978 47.9499 8.63178 47.9499H14.4651C14.6198 47.9499 14.7682 47.8884 14.8776 47.779C14.987 47.6696 15.0484 47.5212 15.0484 47.3665V43.8665C15.0484 42.2565 16.3551 40.9499 17.9651 40.9499H22.0485V36.8665C22.0485 35.3499 23.2081 34.1015 24.6898 33.9615L27.2028 36.4769C26.8584 36.7517 26.5606 37.0803 26.3208 37.4499H25.5508V41.5332C25.5508 43.1432 24.2441 44.4499 22.6341 44.4499H18.5508V47.3665C18.5508 48.4495 18.1206 49.4881 17.3548 50.2539C16.589 51.0197 15.5504 51.4499 14.4674 51.4499H8.63411C7.55115 51.4499 6.51254 51.0197 5.74676 50.2539C4.98099 49.4881 4.55078 48.4495 4.55078 47.3665V42.2985C4.55078 40.5952 5.22511 38.9642 6.42911 37.7625L20.9774 23.2119C21.0484 23.1371 21.1003 23.0463 21.1287 22.9472C21.1572 22.8481 21.1613 22.7436 21.1408 22.6425C20.9807 21.7929 20.8948 20.931 20.8841 20.0665ZM32.1541 26.3199C32.3261 26.1597 32.464 25.9665 32.5596 25.7518C32.6553 25.5371 32.7067 25.3054 32.7108 25.0704C32.715 24.8354 32.6718 24.602 32.5837 24.3841C32.4957 24.1662 32.3647 23.9683 32.1985 23.8021C32.0324 23.6359 31.8344 23.5049 31.6165 23.4169C31.3986 23.3289 31.1652 23.2857 30.9302 23.2898C30.6953 23.294 30.4635 23.3454 30.2489 23.441C30.0342 23.5367 29.841 23.6746 29.6808 23.8465L25.0141 28.5132C24.6864 28.8413 24.5023 29.2861 24.5023 29.7499C24.5023 30.2136 24.6864 30.6584 25.0141 30.9865L29.6808 35.6532C29.841 35.8251 30.0342 35.963 30.2489 36.0587C30.4635 36.1543 30.6953 36.2058 30.9302 36.2099C31.1652 36.2141 31.3986 36.1708 31.6165 36.0828C31.8344 35.9948 32.0324 35.8638 32.1985 35.6976C32.3647 35.5314 32.4957 35.3335 32.5837 35.1156C32.6718 34.8977 32.715 34.6643 32.7108 34.4293C32.7067 34.1943 32.6553 33.9626 32.5596 33.7479C32.464 33.5333 32.3261 33.3401 32.1541 33.1799L30.4741 31.4999H39.6674C41.2827 31.4999 42.8616 31.9788 44.2046 32.8762C45.5476 33.7736 46.5943 35.049 47.2125 36.5413C47.8306 38.0336 47.9923 39.6756 47.6772 41.2598C47.3621 42.8439 46.5843 44.2991 45.4422 45.4412C44.3 46.5834 42.8449 47.3612 41.2607 47.6763C39.6765 47.9914 38.0345 47.8297 36.5422 47.2116C35.0499 46.5934 33.7745 45.5467 32.8771 44.2037C31.9797 42.8607 31.5008 41.2817 31.5008 39.6665C31.5008 39.2024 31.3164 38.7573 30.9882 38.4291C30.66 38.1009 30.2149 37.9165 29.7508 37.9165C29.2867 37.9165 28.8415 38.1009 28.5133 38.4291C28.1852 38.7573 28.0008 39.2024 28.0008 39.6665C28.0008 41.974 28.685 44.2296 29.967 46.1482C31.2489 48.0668 33.071 49.5621 35.2028 50.4451C37.3346 51.3282 39.6804 51.5592 41.9435 51.109C44.2066 50.6589 46.2854 49.5477 47.917 47.9161C49.5486 46.2845 50.6598 44.2057 51.1099 41.9426C51.5601 39.6795 51.3291 37.3337 50.446 35.2019C49.563 33.0701 48.0677 31.248 46.1491 29.9661C44.2305 28.6841 41.9749 27.9999 39.6674 27.9999H30.4741L32.1541 26.3199Z" fill="#FF5C5C"/>
</svg>
