<svg width="121" height="120" viewBox="0 0 121 120" fill="none" xmlns="http://www.w3.org/2000/svg">
<circle cx="60.5" cy="60" r="60" fill="url(#paint0_linear_170_3345)"/>
<path d="M61.5004 84.21C59.0479 84.21 56.6179 83.49 54.7054 82.0725L45.0304 74.85C42.4654 72.9375 40.4629 68.9325 40.4629 65.76V49.02C40.4629 45.555 43.0054 41.865 46.2679 40.65L57.4954 36.4425C59.7229 35.61 63.2329 35.61 65.4604 36.4425L76.6879 40.65C79.9504 41.865 82.4929 45.555 82.4929 49.02V65.7375C82.4929 68.9325 80.4904 72.915 77.9254 74.8275L68.2504 82.05C66.3829 83.49 63.9529 84.21 61.5004 84.21ZM58.6879 39.615L47.4604 43.8225C45.5479 44.5425 43.8604 46.9725 43.8604 49.0425V65.76C43.8604 67.8975 45.3679 70.89 47.0554 72.15L56.7304 79.3725C59.3179 81.3075 63.6829 81.3075 66.2929 79.3725L75.9679 72.15C77.6779 70.8675 79.1629 67.8975 79.1629 65.76V49.02C79.1629 46.9725 77.4754 44.5425 75.5629 43.8L64.3354 39.5925C62.8054 39.0525 60.1954 39.0525 58.6879 39.615Z" fill="white"/>
<path d="M58.4841 65.0175C58.0566 65.0175 57.6291 64.86 57.2916 64.5225L53.6691 60.9C53.0166 60.2475 53.0166 59.1675 53.6691 58.515C54.3216 57.8625 55.4016 57.8625 56.0541 58.515L58.4841 60.945L66.9666 52.4625C67.6191 51.81 68.6991 51.81 69.3516 52.4625C70.0041 53.115 70.0041 54.195 69.3516 54.8475L59.6766 64.5225C59.3391 64.86 58.9116 65.0175 58.4841 65.0175Z" fill="white"/>
<defs>
<linearGradient id="paint0_linear_170_3345" x1="60.5" y1="-25.7463" x2="60.5" y2="126.269" gradientUnits="userSpaceOnUse">
<stop stop-color="#76CF56"/>
<stop offset="1" stop-color="#55DDAF"/>
</linearGradient>
</defs>
</svg>
