<svg width="24" height="24" viewBox="0 0 24 24" fill="none" xmlns="http://www.w3.org/2000/svg">
<path d="M24.0012 12.2663C24.0012 11.2796 23.9195 10.5596 23.7427 9.81299H12.2461V14.2663H18.9943C18.8583 15.373 18.1236 17.0396 16.4909 18.1596L16.4681 18.3087L20.1031 21.0683L20.3549 21.093C22.6678 18.9996 24.0012 15.9196 24.0012 12.2663Z" fill="#4285F4"/>
<path d="M12.2415 24C15.5475 24 18.323 22.9333 20.3503 21.0934L16.4863 18.1599C15.4523 18.8666 14.0646 19.3599 12.2415 19.3599C9.00342 19.3599 6.25516 17.2666 5.27548 14.3733L5.13188 14.3852L1.35216 17.2519L1.30273 17.3866C3.31631 21.3066 7.45235 24 12.2415 24Z" fill="#34A853"/>
<path d="M5.27884 14.3733C5.02035 13.6267 4.87074 12.8266 4.87074 12C4.87074 11.1733 5.02035 10.3733 5.26524 9.62667L5.2584 9.46765L1.4313 6.55493L1.30609 6.6133C0.476194 8.23998 0 10.0667 0 12C0 13.9333 0.476194 15.7599 1.30609 17.3866L5.27884 14.3733Z" fill="#FBBC05"/>
<path d="M12.2415 4.63996C14.5408 4.63996 16.0918 5.61329 16.9762 6.42667L20.432 3.11999C18.3096 1.18667 15.5476 0 12.2415 0C7.45238 0 3.31632 2.69331 1.30273 6.61327L5.2619 9.62664C6.25519 6.73331 9.00346 4.63996 12.2415 4.63996Z" fill="#EB4335"/>
</svg>
