<svg width="20" height="21" viewBox="0 0 20 21" fill="none" xmlns="http://www.w3.org/2000/svg">
<path d="M15 13.6562C14.3667 13.6562 13.8 13.9062 13.3667 14.2979L7.425 10.8395C7.46667 10.6479 7.5 10.4562 7.5 10.2562C7.5 10.0562 7.46667 9.86452 7.425 9.67285L13.3 6.24785C13.75 6.66452 14.3417 6.92285 15 6.92285C16.3833 6.92285 17.5 5.80619 17.5 4.42285C17.5 3.03952 16.3833 1.92285 15 1.92285C13.6167 1.92285 12.5 3.03952 12.5 4.42285C12.5 4.62285 12.5333 4.81452 12.575 5.00618L6.7 8.43119C6.25 8.01452 5.65833 7.75619 5 7.75619C3.61667 7.75619 2.5 8.87285 2.5 10.2562C2.5 11.6395 3.61667 12.7562 5 12.7562C5.65833 12.7562 6.25 12.4979 6.7 12.0812L12.6333 15.5479C12.5917 15.7229 12.5667 15.9062 12.5667 16.0895C12.5667 17.4312 13.6583 18.5229 15 18.5229C16.3417 18.5229 17.4333 17.4312 17.4333 16.0895C17.4333 14.7479 16.3417 13.6562 15 13.6562Z" fill="#1A2B56"/>
</svg>
