<?xml version="1.0" encoding="UTF-8"?>
<svg xmlns="http://www.w3.org/2000/svg" id="Layer_1" data-name="Layer 1" viewBox="0 0 24 24">
  <path d="m17,14.495c0,.664.446,1.255,1.084,1.438l4.106,1.174c1.065.304,1.81,1.29,1.81,2.398,0,1.376-1.119,2.495-2.495,2.495h-1.005v1.5c0,.276-.224.5-.5.5s-.5-.224-.5-.5v-1.5h-1.005c-1.376,0-2.495-1.119-2.495-2.495,0-.276.224-.5.5-.5s.5.224.5.5c0,.824.671,1.495,1.495,1.495h3.01c.824,0,1.495-.671,1.495-1.495,0-.664-.446-1.255-1.084-1.438l-4.106-1.174c-1.065-.304-1.81-1.29-1.81-2.398,0-1.376,1.119-2.495,2.495-2.495h1.005v-1.5c0-.276.224-.5.5-.5s.5.224.5.5v1.5h1.005c1.376,0,2.495,1.119,2.495,2.495,0,.276-.224.5-.5.5s-.5-.224-.5-.5c0-.824-.671-1.495-1.495-1.495h-3.01c-.824,0-1.495.671-1.495,1.495ZM22.5,0h-5c-.276,0-.5.224-.5.5s.224.5.5.5h4.793l-5.512,5.512c-.707.706-1.855.706-2.562,0l-2.73-2.73c-1.096-1.096-2.881-1.096-3.977,0L.146,11.146c-.195.195-.195.512,0,.707.098.098.226.146.354.146s.256-.049.354-.146l7.365-7.365c.707-.706,1.855-.706,2.562,0l2.73,2.73c1.096,1.096,2.881,1.096,3.977,0l5.512-5.512v4.793c0,.276.224.5.5.5s.5-.224.5-.5V1.5c0-.827-.673-1.5-1.5-1.5Zm-10,9c-.276,0-.5.224-.5.5v14c0,.276.224.5.5.5s.5-.224.5-.5v-14c0-.276-.224-.5-.5-.5Zm-5-1c-.276,0-.5.224-.5.5v15c0,.276.224.5.5.5s.5-.224.5-.5v-15c0-.276-.224-.5-.5-.5Zm-5,5c-.276,0-.5.224-.5.5v10c0,.276.224.5.5.5s.5-.224.5-.5v-10c0-.276-.224-.5-.5-.5Z"/>
</svg>
