<svg width="24" height="24" viewBox="0 0 24 24" fill="none" xmlns="http://www.w3.org/2000/svg">
<g clip-path="url(#clip0_86_2475)">
<path fill-rule="evenodd" clip-rule="evenodd" d="M8.46959 6.21975C8.61021 6.07909 8.80094 6.00004 8.99984 6H18.7498C18.8982 6.00003 19.0431 6.04404 19.1664 6.12645C19.2897 6.20886 19.3858 6.32598 19.4426 6.46301C19.4994 6.60003 19.5142 6.75081 19.4853 6.89627C19.4564 7.04174 19.3849 7.17536 19.2801 7.28025L17.0301 9.53025C16.8895 9.67091 16.6987 9.74996 16.4998 9.75H6.74984C6.60153 9.74997 6.45655 9.70596 6.33325 9.62355C6.20994 9.54114 6.11383 9.42402 6.05708 9.28699C6.00033 9.14997 5.98548 8.99919 6.0144 8.85373C6.04333 8.70826 6.11473 8.57464 6.21959 8.46975L8.46959 6.21975ZM6.08834 10.896C6.15243 10.7763 6.24781 10.6762 6.36431 10.6065C6.48081 10.5368 6.61406 10.4999 6.74984 10.5H16.4998C16.6233 10.5 16.7448 10.5304 16.8537 10.5887C16.9625 10.6469 17.0553 10.7311 17.1238 10.8338L18.6238 13.0838C18.6992 13.1967 18.7425 13.328 18.7491 13.4636C18.7557 13.5992 18.7253 13.7341 18.6612 13.8538C18.5972 13.9735 18.5018 14.0736 18.3853 14.1434C18.2689 14.2132 18.1356 14.25 17.9998 14.25H8.24984C8.1264 14.25 8.00486 14.2196 7.896 14.1613C7.78715 14.1031 7.69435 14.0189 7.62584 13.9163L6.12584 11.6663C6.05043 11.5533 6.00711 11.422 6.00051 11.2863C5.99391 11.1507 6.02426 11.0158 6.08834 10.896ZM7.71959 15.2198C7.86021 15.0791 8.05094 15 8.24984 15H17.9998C18.1482 15 18.2931 15.044 18.4164 15.1264C18.5397 15.2089 18.6358 15.326 18.6926 15.463C18.7494 15.6 18.7642 15.7508 18.7353 15.8963C18.7064 16.0417 18.6349 16.1754 18.5301 16.2803L16.2801 18.5303C16.1395 18.6709 15.9487 18.75 15.7498 18.75H5.99984C5.85153 18.75 5.70655 18.706 5.58325 18.6236C5.45994 18.5411 5.36383 18.424 5.30708 18.287C5.25033 18.15 5.23548 17.9992 5.2644 17.8537C5.29333 17.7083 5.36473 17.5746 5.46959 17.4698L7.71959 15.2198Z" fill="black"/>
</g>
<defs>
<clipPath id="clip0_86_2475">
<rect width="18" height="18" fill="white" transform="translate(3 3)"/>
</clipPath>
</defs>
</svg>
