<svg width="80" height="80" viewBox="0 0 80 80" fill="none" xmlns="http://www.w3.org/2000/svg">
<path d="M63.3333 63.3333H16.6667V16.6667H63.3333M63.3333 10H16.6667C14.8986 10 13.2029 10.7024 11.9526 11.9526C10.7024 13.2029 10 14.8986 10 16.6667V63.3333C10 65.1014 10.7024 66.7971 11.9526 68.0474C13.2029 69.2976 14.8986 70 16.6667 70H63.3333C65.1014 70 66.7971 69.2976 68.0474 68.0474C69.2976 66.7971 70 65.1014 70 63.3333V16.6667C70 14.8986 69.2976 13.2029 68.0474 11.9526C66.7971 10.7024 65.1014 10 63.3333 10ZM55 54.1667C55 49.1667 45 46.6667 40 46.6667C35 46.6667 25 49.1667 25 54.1667V56.6667H55M40 40.8333C41.9891 40.8333 43.8968 40.0432 45.3033 38.6366C46.7098 37.2301 47.5 35.3225 47.5 33.3333C47.5 31.3442 46.7098 29.4366 45.3033 28.03C43.8968 26.6235 41.9891 25.8333 40 25.8333C38.0109 25.8333 36.1032 26.6235 34.6967 28.03C33.2902 29.4366 32.5 31.3442 32.5 33.3333C32.5 35.3225 33.2902 37.2301 34.6967 38.6366C36.1032 40.0432 38.0109 40.8333 40 40.8333Z" fill="#030303"/>
</svg>
