<svg width="16" height="16" viewBox="0 0 16 16" fill="none" xmlns="http://www.w3.org/2000/svg">
<path d="M13.866 11.3333V10.3333C13.866 9.4 12.9327 8.66667 11.9993 8.66667C11.066 8.66667 10.1327 9.4 10.1327 10.3333V11.3333C9.73268 11.3333 9.33268 11.7333 9.33268 12.1333V14.4667C9.33268 14.9333 9.73268 15.3333 10.1327 15.3333H13.7993C14.266 15.3333 14.666 14.9333 14.666 14.5333V12.2C14.666 11.7333 14.266 11.3333 13.866 11.3333ZM12.9993 11.3333H10.9993V10.3333C10.9993 9.8 11.466 9.46667 11.9993 9.46667C12.5327 9.46667 12.9993 9.8 12.9993 10.3333V11.3333ZM9.99935 8C9.39935 8.46667 8.99935 9.06667 8.86602 9.8C8.59935 9.93333 8.33268 10 7.99935 10C6.86602 10 5.99935 9.13333 5.99935 8C5.99935 6.86667 6.86602 6 7.99935 6C9.13268 6 9.99935 6.86667 9.99935 8ZM7.99935 13C4.66602 13 1.79935 10.9333 0.666016 8C1.79935 5.06667 4.66602 3 7.99935 3C11.3327 3 14.1993 5.06667 15.3327 8C15.1993 8.33333 14.9993 8.66667 14.866 9C14.3327 8 13.1993 7.33333 11.9993 7.33333C11.7327 7.33333 11.5327 7.4 11.266 7.4C10.9993 5.86667 9.66602 4.66667 7.99935 4.66667C6.13268 4.66667 4.66602 6.13333 4.66602 8C4.66602 9.86667 6.13268 11.3333 7.99935 11.3333H8.19935C8.06602 11.6 7.99935 11.8667 7.99935 12.1333V13Z" fill="#FF5C5C"/>
</svg>
