<svg width="20" height="21" viewBox="0 0 20 21" fill="none" xmlns="http://www.w3.org/2000/svg">
<g clip-path="url(#clip0_116_3181)">
<path fill-rule="evenodd" clip-rule="evenodd" d="M6.66667 10.5C7.15749 10.4999 7.63748 10.6443 8.04678 10.9152C8.45608 11.1861 8.77658 11.5715 8.96833 12.0233L9.02417 12.1667L16.6667 12.1667C16.8791 12.1669 17.0834 12.2482 17.2378 12.394C17.3923 12.5398 17.4852 12.7391 17.4976 12.9512C17.5101 13.1632 17.4411 13.372 17.3048 13.5349C17.1685 13.6977 16.9751 13.8024 16.7642 13.8275L16.6667 13.8333H9.025C8.857 14.3086 8.54931 14.7219 8.14228 15.0193C7.73524 15.3166 7.24786 15.484 6.74404 15.4995C6.24022 15.515 5.74348 15.3779 5.31894 15.1061C4.8944 14.8344 4.56189 14.4407 4.365 13.9767L4.30833 13.8333H3.33333C3.12093 13.8331 2.91664 13.7518 2.76219 13.606C2.60775 13.4602 2.5148 13.2609 2.50236 13.0488C2.48991 12.8368 2.5589 12.628 2.69522 12.4651C2.83155 12.3023 3.02492 12.1976 3.23583 12.1725L3.33333 12.1667H4.30833C4.48084 11.6791 4.80027 11.257 5.22262 10.9585C5.64498 10.66 6.14949 10.4999 6.66667 10.5ZM6.66667 12.1667C6.44565 12.1667 6.23369 12.2545 6.07741 12.4107C5.92113 12.567 5.83333 12.779 5.83333 13C5.83333 13.221 5.92113 13.433 6.07741 13.5893C6.23369 13.7455 6.44565 13.8333 6.66667 13.8333C6.88768 13.8333 7.09964 13.7455 7.25592 13.5893C7.4122 13.433 7.5 13.221 7.5 13C7.5 12.779 7.4122 12.567 7.25592 12.4107C7.09964 12.2545 6.88768 12.1667 6.66667 12.1667ZM13.3333 5.5C14.4217 5.5 15.3483 6.19583 15.6917 7.16667H16.6667C16.8877 7.16667 17.0996 7.25446 17.2559 7.41074C17.4122 7.56702 17.5 7.77899 17.5 8C17.5 8.22101 17.4122 8.43298 17.2559 8.58926C17.0996 8.74554 16.8877 8.83333 16.6667 8.83333H15.6917C15.5195 9.32128 15.2002 9.74381 14.7778 10.0427C14.3554 10.3415 13.8508 10.502 13.3333 10.502C12.8159 10.502 12.3112 10.3415 11.8888 10.0427C11.4664 9.74381 11.1472 9.32128 10.975 8.83333L3.33333 8.83333C3.11232 8.83333 2.90036 8.74554 2.74408 8.58926C2.5878 8.43298 2.5 8.22101 2.5 8C2.5 7.77899 2.5878 7.56702 2.74408 7.41074C2.90036 7.25446 3.11232 7.16667 3.33333 7.16667L10.975 7.16667C11.1475 6.6791 11.4669 6.25702 11.8893 5.95853C12.3116 5.66005 12.8162 5.49985 13.3333 5.5ZM13.3333 7.16667C13.1123 7.16667 12.9004 7.25446 12.7441 7.41074C12.5878 7.56702 12.5 7.77899 12.5 8C12.5 8.22101 12.5878 8.43298 12.7441 8.58926C12.9004 8.74554 13.1123 8.83333 13.3333 8.83333C13.5543 8.83333 13.7663 8.74554 13.9226 8.58926C14.0789 8.43298 14.1667 8.22101 14.1667 8C14.1667 7.77899 14.0789 7.56702 13.9226 7.41074C13.7663 7.25446 13.5543 7.16667 13.3333 7.16667Z" fill="url(#paint0_linear_116_3181)"/>
</g>
<defs>
<linearGradient id="paint0_linear_116_3181" x1="10" y1="3.35434" x2="10" y2="16.0231" gradientUnits="userSpaceOnUse">
<stop stop-color="#76CF56"/>
<stop offset="1" stop-color="#55DDAF"/>
</linearGradient>
<clipPath id="clip0_116_3181">
<rect width="20" height="20" fill="white" transform="translate(0 0.5)"/>
</clipPath>
</defs>
</svg>
