<svg width="28" height="28" viewBox="0 0 28 28" fill="none" xmlns="http://www.w3.org/2000/svg">
<path d="M16.3333 24C16.0239 24 15.7272 23.8771 15.5084 23.6583C15.2896 23.4395 15.1667 23.1428 15.1667 22.8333V13.5C15.1667 13.1906 15.2896 12.8938 15.5084 12.675C15.7272 12.4562 16.0239 12.3333 16.3333 12.3333H23.3333C23.6428 12.3333 23.9395 12.4562 24.1583 12.675C24.3771 12.8938 24.5 13.1906 24.5 13.5V22.8333C24.5 23.1428 24.3771 23.4395 24.1583 23.6583C23.9395 23.8771 23.6428 24 23.3333 24H16.3333ZM4.66667 14.6667C4.35725 14.6667 4.0605 14.5437 3.84171 14.325C3.62292 14.1062 3.5 13.8094 3.5 13.5V4.16667C3.5 3.85725 3.62292 3.5605 3.84171 3.34171C4.0605 3.12292 4.35725 3 4.66667 3H11.6667C11.9761 3 12.2728 3.12292 12.4916 3.34171C12.7104 3.5605 12.8333 3.85725 12.8333 4.16667V13.5C12.8333 13.8094 12.7104 14.1062 12.4916 14.325C12.2728 14.5437 11.9761 14.6667 11.6667 14.6667H4.66667ZM10.5 12.3333V5.33333H5.83333V12.3333H10.5ZM4.66667 24C4.35725 24 4.0605 23.8771 3.84171 23.6583C3.62292 23.4395 3.5 23.1428 3.5 22.8333V18.1667C3.5 17.8572 3.62292 17.5605 3.84171 17.3417C4.0605 17.1229 4.35725 17 4.66667 17H11.6667C11.9761 17 12.2728 17.1229 12.4916 17.3417C12.7104 17.5605 12.8333 17.8572 12.8333 18.1667V22.8333C12.8333 23.1428 12.7104 23.4395 12.4916 23.6583C12.2728 23.8771 11.9761 24 11.6667 24H4.66667ZM5.83333 21.6667H10.5V19.3333H5.83333V21.6667ZM17.5 21.6667H22.1667V14.6667H17.5V21.6667ZM15.1667 4.16667C15.1667 3.85725 15.2896 3.5605 15.5084 3.34171C15.7272 3.12292 16.0239 3 16.3333 3H23.3333C23.6428 3 23.9395 3.12292 24.1583 3.34171C24.3771 3.5605 24.5 3.85725 24.5 4.16667V8.83333C24.5 9.14275 24.3771 9.4395 24.1583 9.65829C23.9395 9.87708 23.6428 10 23.3333 10H16.3333C16.0239 10 15.7272 9.87708 15.5084 9.65829C15.2896 9.4395 15.1667 9.14275 15.1667 8.83333V4.16667ZM17.5 5.33333V7.66667H22.1667V5.33333H17.5Z" fill="#1A2B56"/>
<rect x="5" y="5" width="6" height="8" fill="#1A2B56"/>
<rect x="17" y="14" width="6" height="8" fill="#1A2B56"/>
<rect x="17" y="5" width="6" height="3" fill="#1A2B56"/>
<rect x="5" y="19" width="6" height="3" fill="#1A2B56"/>
</svg>
