<svg width="24" height="24" viewBox="0 0 24 24" fill="none" xmlns="http://www.w3.org/2000/svg">
<rect x="0.375" y="0.375" width="23.25" height="23.25" rx="5.625" fill="#FAFAFA"/>
<rect x="0.375" y="0.375" width="23.25" height="23.25" rx="5.625" stroke="#F5F5F5" stroke-width="0.75"/>
<path d="M16.75 14.5H14.75C14.6119 14.5 14.5 14.6119 14.5 14.75V16.75C14.5 16.8881 14.6119 17 14.75 17H16.75C16.8881 17 17 16.8881 17 16.75V14.75C17 14.6119 16.8881 14.5 16.75 14.5Z" fill="#030303"/>
<path d="M14.25 12.5H12.75C12.6119 12.5 12.5 12.6119 12.5 12.75V14.25C12.5 14.3881 12.6119 14.5 12.75 14.5H14.25C14.3881 14.5 14.5 14.3881 14.5 14.25V12.75C14.5 12.6119 14.3881 12.5 14.25 12.5Z" fill="#030303"/>
<path d="M18.75 17H17.25C17.1119 17 17 17.1119 17 17.25V18.75C17 18.8881 17.1119 19 17.25 19H18.75C18.8881 19 19 18.8881 19 18.75V17.25C19 17.1119 18.8881 17 18.75 17Z" fill="#030303"/>
<path d="M18.75 12.5H17.75C17.6119 12.5 17.5 12.6119 17.5 12.75V13.75C17.5 13.8881 17.6119 14 17.75 14H18.75C18.8881 14 19 13.8881 19 13.75V12.75C19 12.6119 18.8881 12.5 18.75 12.5Z" fill="#030303"/>
<path d="M13.75 17.5H12.75C12.6119 17.5 12.5 17.6119 12.5 17.75V18.75C12.5 18.8881 12.6119 19 12.75 19H13.75C13.8881 19 14 18.8881 14 18.75V17.75C14 17.6119 13.8881 17.5 13.75 17.5Z" fill="#030303"/>
<path d="M18 5H13.5C13.2348 5 12.9804 5.10536 12.7929 5.29289C12.6054 5.48043 12.5 5.73478 12.5 6V10.5C12.5 10.7652 12.6054 11.0196 12.7929 11.2071C12.9804 11.3946 13.2348 11.5 13.5 11.5H18C18.2652 11.5 18.5196 11.3946 18.7071 11.2071C18.8946 11.0196 19 10.7652 19 10.5V6C19 5.73478 18.8946 5.48043 18.7071 5.29289C18.5196 5.10536 18.2652 5 18 5ZM17 9.25C17 9.3163 16.9737 9.37989 16.9268 9.42678C16.8799 9.47366 16.8163 9.5 16.75 9.5H14.75C14.6837 9.5 14.6201 9.47366 14.5732 9.42678C14.5263 9.37989 14.5 9.3163 14.5 9.25V7.25C14.5 7.1837 14.5263 7.12011 14.5732 7.07322C14.6201 7.02634 14.6837 7 14.75 7H16.75C16.8163 7 16.8799 7.02634 16.9268 7.07322C16.9737 7.12011 17 7.1837 17 7.25V9.25ZM10.5 5H6C5.73478 5 5.48043 5.10536 5.29289 5.29289C5.10536 5.48043 5 5.73478 5 6V10.5C5 10.7652 5.10536 11.0196 5.29289 11.2071C5.48043 11.3946 5.73478 11.5 6 11.5H10.5C10.7652 11.5 11.0196 11.3946 11.2071 11.2071C11.3946 11.0196 11.5 10.7652 11.5 10.5V6C11.5 5.73478 11.3946 5.48043 11.2071 5.29289C11.0196 5.10536 10.7652 5 10.5 5ZM9.5 9.25C9.5 9.3163 9.47366 9.37989 9.42678 9.42678C9.37989 9.47366 9.3163 9.5 9.25 9.5H7.25C7.1837 9.5 7.12011 9.47366 7.07322 9.42678C7.02634 9.37989 7 9.3163 7 9.25V7.25C7 7.1837 7.02634 7.12011 7.07322 7.07322C7.12011 7.02634 7.1837 7 7.25 7H9.25C9.3163 7 9.37989 7.02634 9.42678 7.07322C9.47366 7.12011 9.5 7.1837 9.5 7.25V9.25ZM10.5 12.5H6C5.73478 12.5 5.48043 12.6054 5.29289 12.7929C5.10536 12.9804 5 13.2348 5 13.5V18C5 18.2652 5.10536 18.5196 5.29289 18.7071C5.48043 18.8946 5.73478 19 6 19H10.5C10.7652 19 11.0196 18.8946 11.2071 18.7071C11.3946 18.5196 11.5 18.2652 11.5 18V13.5C11.5 13.2348 11.3946 12.9804 11.2071 12.7929C11.0196 12.6054 10.7652 12.5 10.5 12.5ZM9.5 16.75C9.5 16.8163 9.47366 16.8799 9.42678 16.9268C9.37989 16.9737 9.3163 17 9.25 17H7.25C7.1837 17 7.12011 16.9737 7.07322 16.9268C7.02634 16.8799 7 16.8163 7 16.75V14.75C7 14.6837 7.02634 14.6201 7.07322 14.5732C7.12011 14.5263 7.1837 14.5 7.25 14.5H9.25C9.3163 14.5 9.37989 14.5263 9.42678 14.5732C9.47366 14.6201 9.5 14.6837 9.5 14.75V16.75Z" fill="#030303"/>
</svg>
