<svg width="28" height="28" viewBox="0 0 28 28" fill="none" xmlns="http://www.w3.org/2000/svg">
<path fill-rule="evenodd" clip-rule="evenodd" d="M13.5089 14.0657C16.5876 14.0657 19.0833 11.57 19.0833 8.49136C19.0833 5.41272 16.5876 2.91699 13.5089 2.91699C10.4303 2.91699 7.93457 5.41272 7.93457 8.49136C7.93457 11.57 10.4303 14.0657 13.5089 14.0657Z" fill="#1A2B56"/>
<path fill-rule="evenodd" clip-rule="evenodd" d="M4.66701 21.8185C4.66551 21.4266 4.75315 21.0395 4.9233 20.6865C5.45725 19.6186 6.96297 19.0527 8.2124 18.7964C9.11348 18.6041 10.027 18.4756 10.9462 18.4119C12.648 18.2624 14.3596 18.2624 16.0614 18.4119C16.9805 18.4763 17.8939 18.6048 18.7952 18.7964C20.0446 19.0527 21.5503 19.5652 22.0843 20.6865C22.4264 21.4061 22.4264 22.2415 22.0843 22.9611C21.5503 24.0824 20.0446 24.595 18.7952 24.8406C17.8951 25.0409 16.9813 25.1729 16.0614 25.2357C14.6763 25.3531 13.2847 25.3745 11.8966 25.2998C11.5762 25.2998 11.2666 25.2998 10.9462 25.2357C10.0297 25.1737 9.11936 25.0416 8.22308 24.8406C6.96297 24.595 5.46793 24.0824 4.9233 22.9611C4.75402 22.604 4.66647 22.2137 4.66701 21.8185Z" fill="#1A2B56"/>
</svg>
