<svg width="54" height="54" viewBox="0 0 54 54" fill="none" xmlns="http://www.w3.org/2000/svg">
<path d="M27.0004 51.2102C24.5479 51.2102 22.1179 50.4902 20.2054 49.0727L10.5304 41.8502C7.96539 39.9377 5.96289 35.9327 5.96289 32.7602V16.0202C5.96289 12.5552 8.50539 8.86523 11.7679 7.65023L22.9954 3.44273C25.2229 2.61023 28.7329 2.61023 30.9604 3.44273L42.1879 7.65023C45.4504 8.86523 47.9929 12.5552 47.9929 16.0202V32.7377C47.9929 35.9327 45.9904 39.9152 43.4254 41.8277L33.7504 49.0502C31.8829 50.4902 29.4529 51.2102 27.0004 51.2102ZM24.1879 6.61523L12.9604 10.8227C11.0479 11.5427 9.36039 13.9727 9.36039 16.0427V32.7602C9.36039 34.8977 10.8679 37.8902 12.5554 39.1502L22.2304 46.3727C24.8179 48.3077 29.1829 48.3077 31.7929 46.3727L41.4679 39.1502C43.1779 37.8677 44.6629 34.8977 44.6629 32.7602V16.0202C44.6629 13.9727 42.9754 11.5427 41.0629 10.8002L29.8354 6.59273C28.3054 6.05273 25.6954 6.05273 24.1879 6.61523Z" fill="url(#paint0_linear_71_1047)"/>
<path d="M23.9841 32.0175C23.5566 32.0175 23.1291 31.86 22.7916 31.5225L19.1691 27.9C18.5166 27.2475 18.5166 26.1675 19.1691 25.515C19.8216 24.8625 20.9016 24.8625 21.5541 25.515L23.9841 27.945L32.4666 19.4625C33.1191 18.81 34.1991 18.81 34.8516 19.4625C35.5041 20.115 35.5041 21.195 34.8516 21.8475L25.1766 31.5225C24.8391 31.86 24.4116 32.0175 23.9841 32.0175Z" fill="url(#paint1_linear_71_1047)"/>
<defs>
<linearGradient id="paint0_linear_71_1047" x1="26.9779" y1="-7.56423" x2="26.9779" y2="53.7382" gradientUnits="userSpaceOnUse">
<stop stop-color="#76CF56"/>
<stop offset="1" stop-color="#55DDAF"/>
</linearGradient>
<linearGradient id="paint1_linear_71_1047" x1="27.0103" y1="16.1744" x2="27.0103" y2="32.6989" gradientUnits="userSpaceOnUse">
<stop stop-color="#76CF56"/>
<stop offset="1" stop-color="#55DDAF"/>
</linearGradient>
</defs>
</svg>
