<?xml version="1.0" encoding="UTF-8"?>
<svg xmlns="http://www.w3.org/2000/svg" id="Layer_1" data-name="Layer 1" viewBox="0 0 24 24">
  <path d="M24.026,3.5c0,.357-.139,.692-.392,.945l-2.543,2.544-.707-.707,2.281-2.282H12c-4.411,0-8,3.589-8,8,0,2.39,1.059,4.533,2.726,6h-1.415c-1.432-1.594-2.311-3.694-2.311-6C3,7.038,7.038,3,12,3h10.666l-2.281-2.282L21.091,.011l2.543,2.544c.252,.252,.392,.588,.392,.945Zm-6.753,2.5c1.667,1.467,2.726,3.61,2.726,6,0,4.411-3.589,8-8,8H1.334l2.288-2.288-.707-.707L.366,19.554c-.522,.521-.522,1.371,0,1.893l2.549,2.549,.707-.707-2.288-2.288H12c4.962,0,9-4.037,9-9,0-2.306-.879-4.406-2.311-6h-1.415ZM7.5,12.5v1h1.5c0,1.93,1.57,3.5,3.5,3.5,1.758,0,3.204-1.308,3.449-3h-1c-.232,1.14-1.242,2-2.449,2-1.378,0-2.5-1.121-2.5-2.5h2.5v-1h-2.5v-1h2.5v-1h-2.5c0-1.378,1.122-2.5,2.5-2.5,1.207,0,2.217,.86,2.449,2h1c-.245-1.692-1.691-3-3.449-3-1.93,0-3.5,1.57-3.5,3.5h-1.5v1h1.5v1h-1.5Z"/>
</svg>
