<svg width="20" height="20" viewBox="0 0 20 20" fill="none" xmlns="http://www.w3.org/2000/svg">
<path d="M15.0007 15.8333H5.00065C4.33761 15.8333 3.70173 15.5699 3.23288 15.1011C2.76404 14.6323 2.50065 13.9964 2.50065 13.3333V6.66667C2.50065 6.44565 2.41285 6.23369 2.25657 6.07741C2.10029 5.92113 1.88833 5.83333 1.66732 5.83333C1.4463 5.83333 1.23434 5.92113 1.07806 6.07741C0.921782 6.23369 0.833984 6.44565 0.833984 6.66667V13.3333C0.833984 14.4384 1.27297 15.4982 2.05437 16.2796C2.44128 16.6665 2.90061 16.9734 3.40614 17.1828C3.91166 17.3922 4.45348 17.5 5.00065 17.5H15.0007C15.2217 17.5 15.4336 17.4122 15.5899 17.2559C15.7462 17.0996 15.834 16.8877 15.834 16.6667C15.834 16.4457 15.7462 16.2337 15.5899 16.0774C15.4336 15.9211 15.2217 15.8333 15.0007 15.8333ZM19.1673 8.28333C19.1586 8.20678 19.1419 8.13136 19.1173 8.05833V7.98333C19.0773 7.89765 19.0238 7.81889 18.959 7.75L13.959 2.75C13.8901 2.68518 13.8113 2.63173 13.7257 2.59167H13.6507L13.384 2.5H6.66732C6.00428 2.5 5.36839 2.76339 4.89955 3.23223C4.43071 3.70107 4.16732 4.33696 4.16732 5V11.6667C4.16732 12.3297 4.43071 12.9656 4.89955 13.4344C5.36839 13.9033 6.00428 14.1667 6.66732 14.1667H16.6673C17.3304 14.1667 17.9662 13.9033 18.4351 13.4344C18.9039 12.9656 19.1673 12.3297 19.1673 11.6667V8.33333C19.1673 8.33333 19.1673 8.33333 19.1673 8.28333ZM14.1673 5.34167L16.3257 7.5H15.0007C14.7796 7.5 14.5677 7.4122 14.4114 7.25592C14.2551 7.09964 14.1673 6.88768 14.1673 6.66667V5.34167ZM17.5007 11.6667C17.5007 11.8877 17.4129 12.0996 17.2566 12.2559C17.1003 12.4122 16.8883 12.5 16.6673 12.5H6.66732C6.4463 12.5 6.23434 12.4122 6.07806 12.2559C5.92178 12.0996 5.83398 11.8877 5.83398 11.6667V5C5.83398 4.77899 5.92178 4.56702 6.07806 4.41074C6.23434 4.25446 6.4463 4.16667 6.66732 4.16667H12.5007V6.66667C12.5007 7.32971 12.764 7.96559 13.2329 8.43443C13.7017 8.90327 14.3376 9.16667 15.0007 9.16667H17.5007V11.6667Z" fill="#030303"/>
</svg>
