<svg width="28" height="28" viewBox="0 0 28 28" fill="none" xmlns="http://www.w3.org/2000/svg">
<path d="M11.0832 23.212V20.0014C11.0832 19.1818 11.7877 18.5174 12.6567 18.5174H15.8334C16.2507 18.5174 16.651 18.6738 16.9461 18.9521C17.2411 19.2304 17.4069 19.6078 17.4069 20.0014V23.212C17.4043 23.5527 17.546 23.8804 17.8005 24.1222C18.0551 24.364 18.4014 24.5 18.7627 24.5H20.93C21.9422 24.5025 22.9139 24.125 23.6306 23.4508C24.3472 22.7767 24.75 21.8613 24.75 20.9067V11.7602C24.75 10.9891 24.3875 10.2576 23.7604 9.7629L16.3876 4.20966C15.1051 3.23599 13.2675 3.26743 12.0233 4.28433L4.8188 9.7629C4.16198 10.243 3.7694 10.9767 3.75 11.7602V20.8974C3.75 22.887 5.46026 24.5 7.56998 24.5H9.68779C10.4382 24.5 11.048 23.929 11.0535 23.2213L11.0832 23.212Z" stroke="#030303" stroke-width="1.5"/>
</svg>
