<svg width="28" height="28" viewBox="0 0 28 28" fill="none" xmlns="http://www.w3.org/2000/svg">
<path d="M5.83398 9.89509V21.167C5.83398 21.7193 6.2817 22.167 6.83398 22.167H21.1673C21.7196 22.167 22.1673 21.7193 22.1673 21.167V18.1791M5.83398 9.89509H19.7476M5.83398 9.89509L18.3958 5.17492C19.0497 4.92923 19.7476 5.41253 19.7476 6.11101L19.7476 9.89509M22.1673 14.5281V10.8951C22.1673 10.3428 21.7196 9.89509 21.1673 9.89509H19.7476M22.1673 14.5281H17.5212C16.9689 14.5281 16.5212 14.9758 16.5212 15.5281V17.1791C16.5212 17.7314 16.9689 18.1791 17.5212 18.1791H22.1673M22.1673 14.5281V18.1791" stroke="#030319" stroke-linejoin="round"/>
</svg>
